<?xml version="1.0" encoding="iso-8859-1"?>
<!-- Generator: Adobe Illustrator 19.0.0, SVG Export Plug-In . SVG Version: 6.00 Build 0)  -->
<svg version="1.1" id="Capa_1" xmlns="http://www.w3.org/2000/svg" xmlns:xlink="http://www.w3.org/1999/xlink" x="0px" y="0px"
	 viewBox="0 0 381.28 381.28" style="enable-background:new 0 0 381.28 381.28;" xml:space="preserve">
<path style="fill:#CE7419;" d="M57.04,327.32h267.12c12.415,0,22.48,10.047,22.48,22.44l0,0c0,12.393-10.065,22.44-22.48,22.44
	H57.04c-12.415,0-22.48-10.047-22.48-22.44l0,0C34.56,337.367,44.625,327.32,57.04,327.32z"/>
<g>
	<path style="fill:#FCBA29;" d="M28.56,114.68l106.08,69.84l56-131.44l56,131.44l106.08-69.84l-50.08,212.64h-224L28.56,114.68z"/>
	<path style="fill:#E99A23;" d="M190.64,53.08l55.6,131.44l106.48-69.84l-50.24,212.64H190.64L190.64,53.08z"/>
</g>
<g>
	<circle style="fill:#FCBA29;" cx="18.48" cy="98.28" r="18.48"/>
	<circle style="fill:#FCBA29;" cx="362.8" cy="100.28" r="18.48"/>
	<circle style="fill:#FCBA29;" cx="190.64" cy="31.08" r="22"/>
</g>
<g>
	<path style="fill:#CE7419;" d="M190.64,198.12l15.84,21.12l15.92,21.12l-15.92,21.12l-15.84,21.12l-15.84-21.12l-15.92-21.12
		l15.92-21.12L190.64,198.12z"/>
	<path style="fill:#CE7419;" d="M272.56,216.92l11.36,15.04l11.28,15.12l-11.28,15.04l-11.36,15.04l-11.36-15.04l-11.28-15.04
		l11.28-15.12L272.56,216.92z"/>
	<path style="fill:#CE7419;" d="M108.72,216.92l11.36,15.04l11.28,15.12l-11.28,15.04l-11.36,15.04l-11.36-15.04l-11.28-15.04
		l11.28-15.12L108.72,216.92z"/>
</g>
<g>
</g>
<g>
</g>
<g>
</g>
<g>
</g>
<g>
</g>
<g>
</g>
<g>
</g>
<g>
</g>
<g>
</g>
<g>
</g>
<g>
</g>
<g>
</g>
<g>
</g>
<g>
</g>
<g>
</g>
</svg>
